# AST/ASF file generated using VICON BodyLanguage
# -----------------------------------------------
:version 1.10
:name VICON
:units
  mass 1.0
  length 0.45
  angle deg
:documentation
   .ast/.asf automatically generated from VICON data using
   VICON BodyBuilder and BodyLanguage model FoxedUp or BRILLIANT.MOD
:root
   order TX TY TZ RX RY RZ
   axis XYZ
   position 0 0 0  
   orientation 0 0 0 
:bonedata
  begin
     id 1 
     name lhipjoint
     direction 0.677091 -0.635792 0.370561 
     length 2.74323 
     axis 0 0 0  XYZ
  end
  begin
     id 2 
     name lfemur
     direction 0.34202 -0.939693 0  
     length 7.44995  
     axis 0 0 20  XYZ
    dof rx ry rz
    limits (-160.0 20.0)
           (-70.0 70.0)
           (-60.0 70.0)
  end
  begin
     id 3 
     name ltibia
     direction 0.34202 -0.939693 0   
     length 7.34467   
     axis 0 0 20   XYZ
    dof rx
    limits (-10.0 170.0)
  end
  begin
     id 4 
     name lfoot
     direction 0.101953 -0.280114 0.954537   
     length 1.72105   
     axis -90 7.62852e-016 20   XYZ
    dof rx rz
    limits (-45.0 90.0)
           (-70.0 20.0)
  end
  begin
     id 5 
     name ltoes
     direction 1.53537e-011 -4.21915e-011 1   
     length 0.865872   
     axis -90 7.62852e-016 20   XYZ
    dof rx
    limits (-90.0 20.0)
  end
  begin
     id 6 
     name rhipjoint
     direction -0.695735 -0.620586 0.361699   
     length 2.81045  
     axis 0 0 0  XYZ 
  end
  begin
     id 7 
     name rfemur
     direction -0.34202 -0.939693 0   
     length 7.29387   
     axis 0 0 -20   XYZ
    dof rx ry rz
    limits (-160.0 20.0)
           (-70.0 70.0)
           (-70.0 60.0)
  end
  begin
     id 8 
     name rtibia
     direction -0.34202 -0.939693 0   
     length 7.44935   
     axis 0 0 -20   XYZ
    dof rx
    limits (-10.0 170.0)
 end
 begin
     id 9 
     name rfoot
     direction -0.104163 -0.286184 0.952496   
     length 1.77731  
     axis -90 -7.62852e-016 -20   XYZ
    dof rx rz
    limits (-45.0 90.0)
           (-20.0 70.0)
  end
  begin
     id 10 
     name rtoes
     direction -1.5355e-011 -4.21888e-011 1   
     length 0.892424   
     axis -90 -7.62852e-016 -20   XYZ
    dof rx
    limits (-90.0 20.0)
  end
  begin
     id 11 
     name lowerback
     direction 0.0100202 0.997226 -0.0737589   
     length 2.16892   
     axis 0 0 0   XYZ
    dof rx ry rz
    limits (-20.0 45.0)
           (-30.0 30.0)
           (-30.0 30.0)
  end
  begin
     id 12 
     name upperback
     direction 0.00432398 0.999988 -0.00215019   
     length 2.17326   
     axis 0 0 0   XYZ
    dof rx ry rz
    limits (-20.0 45.0)
           (-30.0 30.0)
           (-30.0 30.0)
  end
  begin
     id 13 
     name thorax
     direction -0.00195047 0.999485 0.0320434   
     length 2.18139   
     axis 0 0 0   XYZ
    dof rx ry rz
    limits (-20.0 45.0)
           (-30.0 30.0)
           (-30.0 30.0)
  end
  begin
     id 14 
     name lowerneck
     direction 0.00782762 0.986241 0.165128   
     length 1.88415   
     axis 0 0 0   XYZ
    dof rx ry rz
    limits (-20.0 45.0)
           (-30.0 30.0)
           (-30.0 30.0)
  end
  begin
     id 15 
     name upperneck
     direction 0.00988667 0.981098 -0.193258   
     length 1.9242   
     axis 0 0 0   XYZ
    dof rx ry rz
    limits (-20.0 45.0)
           (-30.0 30.0)
           (-30.0 30.0)
  end
  begin
     id 16
     name head
     direction 0.00252199 0.996513 -0.0833958  
     length 1.93887  
     axis 0 0 0   XYZ
    dof rx ry rz
    limits (-20.0 45.0)
           (-30.0 30.0)
           (-30.0 30.0)
  end
  begin
     id 17 
     name lclavicle
     direction 0.929492 0.368193 -0.0218667  
     length 3.5955  
     axis 0 0 0   XYZ
    dof ry rz
    limits (-20.0 10.0)
           (0.0 20.0)
  end
  begin
     id 18 
     name lhumerus
     direction 1 -4.48972e-011 1.41911e-027   
     length 5.2795   
     axis 180 -30 -90   XYZ
    dof rx ry rz
    limits (-60.0 90.0)
           (-90.0 90.0)
           (-90.0 90.0)
  end
  begin
     id 19
     name lradius
     direction 1 -4.48963e-011 7.05772e-027   
     length 3.53504   
     axis 180 -30 -90   XYZ
    dof rx
    limits (-10.0 170.0)
  end
  begin
     id 20
     name lwrist
     direction 1 -4.48957e-011 9.54866e-027   
     length 1.76752   
     axis -7.69462e-015 90 90   XYZ
    dof ry
    limits (-180.0 0.0)
 end
  begin
     id 21 
     name lhand
     direction 1 -4.48979e-011 1.90973e-026   
     length 0.667948   
     axis -1.21857e-014 90 90   XYZ
    dof rx rz
    limits (-90.0 90.0)
           (-45.0 45.0)
  end
  begin
     id 22 
     name lfingers
     direction 1 -4.48987e-011 3.81946e-026   
     length 0.538517   
     axis -2.43714e-014 90 90   XYZ
    dof rx
    limits (0.0 90.0)
  end
  begin
     id 23
     name lthumb
     direction 0.707107 -6.34962e-011 0.707107   
     length 0.773206   
     axis -90 45 2.85299e-015   XYZ
    dof rx rz
    limits (-45.0 45.0)
           (-45.0 45.0)
  end
  begin
     id 24 
     name rclavicle
     direction -0.898763 0.414256 -0.143584   
     length 3.5176  
     axis 0 0 0   XYZ 
    dof ry rz
    limits (-10.0 20.0)
           (-20.0 0.0)
  end
  begin
     id 25 
     name rhumerus
     direction -1 -4.48971e-011 1.129e-027  
     length 5.25035   
     axis 180 30 90   XYZ
    dof rx ry rz
    limits (-90.0 60.0)
           (-90.0 90.0)
           (-90.0 90.0)
  end
  begin
     id 26 
     name rradius
     direction -1 -4.48955e-011 6.34664e-027   
     length 3.58884   
     axis 180 30 90   XYZ
    dof rx
    limits (-10.0 170.0)
  end
  begin
     id 27 
     name rwrist
     direction -1 -4.48966e-011 9.54866e-027   
     length 1.79442   
     axis -7.69462e-015 -90 -90   XYZ
    dof ry
    limits (-180.0 0.0)
  end
  begin
     id 28
     name rhand
     direction -1 -4.48973e-011 1.90973e-026   
     length 0.779235   
     axis -1.21857e-014 -90 -90   XYZ
    dof rx rz
    limits (-90.0 90.0)
           (-45.0 45.0)
  end
  begin
     id 29
     name rfingers
     direction -1 -4.48984e-011 3.81946e-026   
     length 0.62824   
     axis -2.43714e-014 -90 -90   XYZ
    dof rx
    limits (0.0 90.0)
  end
  begin
     id 30
     name rthumb
     direction -0.707107 -6.34968e-011 0.707107   
     length 0.90203   
     axis -90 -45 -2.85299e-015   XYZ
    dof rx rz
    limits (-45.0 45.0)
           (-45.0 45.0)
  end
:hierarchy
  begin
    root lhipjoint rhipjoint lowerback
    lhipjoint lfemur
    lfemur ltibia
    ltibia lfoot
    lfoot ltoes
    rhipjoint rfemur
    rfemur rtibia
    rtibia rfoot
    rfoot rtoes
    lowerback upperback
    upperback thorax
    thorax lowerneck lclavicle rclavicle
    lowerneck upperneck
    upperneck head
    lclavicle lhumerus
    lhumerus lradius
    lradius lwrist
    lwrist lhand lthumb
    lhand lfingers
    rclavicle rhumerus
    rhumerus rradius
    rradius rwrist
    rwrist rhand rthumb
    rhand rfingers
  end

#!OML:ASF I:\Random Stuff\random\construction\7_22_03\Session 2\subj1.ASF
:FULLY-SPECIFIED
:DEGREES
1
root -4.3965 17.8232 0.981341 -40.3667 86.526 -47.2248
lowerback 2.26798 0.517761 2.08696
upperback -2.27019 0.842894 1.39214
thorax -3.59944 0.394857 0.217673
lowerneck -18.1019 -6.60641 -4.11452
upperneck 42.0912 -9.25267 4.92788
head 19.9944 -2.96889 1.37557
rclavicle -1.44119e-015 1.17283e-014
rhumerus -34.5748 -3.58281 -79.4212
rradius 29.4493
rwrist -4.7668
rhand -19.5009 17.1643
rfingers 7.12502
rthumb 6.82159 -12.7058
lclavicle -1.44119e-015 1.17283e-014
lhumerus -35.0218 -4.78861 90.0885
lradius 33.2033
lwrist 26.7579
lhand -18.5406 58.3454
lfingers 7.12502
lthumb 7.74853 88.1834
rfemur -2.2461 8.67422 19.8352
rtibia 1.59028e-015
rfoot -1.22359 -20.6342
rtoes -7.82493
lfemur -10.3511 -30.9016 -10.4324
ltibia 14.8462
lfoot -13.8639 33.4629
ltoes -24.4853
2
root -4.39042 17.8276 0.987037 -43.2651 86.559 -50.0826
lowerback 2.46638 0.506522 2.18783
upperback -2.26242 0.840318 1.43999
thorax -3.70326 0.390916 0.208698
lowerneck -17.8425 -6.24235 -4.13161
upperneck 40.7528 -8.90397 5.41551
head 19.0715 -2.84272 1.65118
rclavicle 1.05853e-014 -3.97569e-016
rhumerus -34.6158 -3.57101 -79.3609
rradius 29.5078
rwrist -4.65075
rhand -19.4326 17.6009
rfingers 7.12502
rthumb 6.8876 -12.2671
lclavicle 1.05853e-014 -3.97569e-016
lhumerus -35.1793 -4.64364 90.1233
lradius 33.486
lwrist 27.0457
lhand -18.9712 58.1818
lfingers 7.12502
lthumb 7.33296 88.0347
rfemur -2.18935 8.53729 19.9821
rtibia 1.03368e-014
rfoot -1.11229 -20.6376
rtoes -8.12279
lfemur -10.2735 -30.3191 -10.3612
ltibia 14.7477
lfoot -13.5949 32.8338
ltoes -24.8981
3
root -4.38337 17.8312 0.992248 -45.1017 86.6459 -51.8924
lowerback 2.62445 0.513551 2.19324
upperback -2.26378 0.855955 1.45885
thorax -3.79423 0.398032 0.222657
lowerneck -17.8058 -5.95494 -4.02759
upperneck 39.8764 -8.54848 5.5121
head 18.4941 -2.71945 1.72145
rclavicle -1.13059e-015 -6.16232e-015
rhumerus -34.6786 -3.63129 -79.271
rradius 29.5796
rwrist -4.45803
rhand -19.4156 17.8776
rfingers 7.12502
rthumb 6.90394 -11.9899
lclavicle -1.13059e-015 -6.16232e-015
lhumerus -35.3981 -4.79926 90.2597
lradius 33.8433
lwrist 27.7067
lhand -19.6609 57.688
lfingers 7.12502
lthumb 6.6672 87.563
rfemur -2.1505 8.40147 20.0195
rtibia 1.59028e-015
rfoot -0.976526 -20.6378
rtoes -8.53563
lfemur -10.1308 -29.8451 -10.3781
ltibia 14.4811
lfoot -13.2365 32.3069
ltoes -25.2554
4
root -4.37514 17.8342 0.996244 -46.2431 86.7924 -53.0485
lowerback 2.73146 0.504525 2.13409
upperback -2.28538 0.844934 1.45087
thorax -3.87797 0.393158 0.247079
lowerneck -17.8021 -5.63105 -3.79055
upperneck 39.0529 -8.11163 5.4241
head 17.9492 -2.56527 1.69792
rclavicle -8.89561e-015 -1.13307e-014
rhumerus -34.737 -3.72906 -79.1934
rradius 29.6078
rwrist -4.19573
rhand -19.3612 18.0035
rfingers 7.12502
rthumb 6.95649 -11.8622
lclavicle -8.89561e-015 -1.13307e-014
lhumerus -35.6261 -5.01542 90.3686
lradius 34.1146
lwrist 28.1225
lhand -19.9627 57.3581
lfingers 7.12502
lthumb 6.37578 87.2422
rfemur -2.15062 8.25207 19.9602
rtibia 0
rfoot -0.861134 -20.6498
rtoes -8.7092
lfemur -10.0394 -29.496 -10.4588
ltibia 14.2232
lfoot -12.8802 31.8842
ltoes -25.632
5
root -4.36578 17.8374 1.00012 -47.3613 86.9616 -54.2187
lowerback 2.76946 0.496791 2.06043
upperback -2.31315 0.832399 1.43243
thorax -3.92903 0.388103 0.269627
lowerneck -17.8797 -5.29917 -3.45607
upperneck 38.3621 -7.64403 5.19484
head 17.5039 -2.39546 1.60211
rclavicle 1.82633e-015 -5.96354e-016
rhumerus -34.7755 -3.77767 -79.1613
rradius 29.5895
rwrist -4.06622
rhand -19.5217 18.0333
rfingers 7.12502
rthumb 6.80155 -11.8375
lclavicle 1.82633e-015 -5.96354e-016
lhumerus -35.8197 -5.24975 90.4955
lradius 34.252
lwrist 28.1716
lhand -19.9703 57.2802
lfingers 7.12502
lthumb 6.36847 87.1645
rfemur -2.17294 8.09013 19.8734
rtibia 1.11319e-014
rfoot -0.749275 -20.6548
rtoes -9.0414
lfemur -9.96291 -29.1528 -10.5467
ltibia 13.9275
lfoot -12.472 31.4669
ltoes -25.7326
6
root -4.35563 17.8435 1.00421 -48.956 87.0932 -55.8704
lowerback 2.77792 0.528971 2.02585
upperback -2.35451 0.874895 1.4181
thorax -3.97653 0.409613 0.271402
lowerneck -18.0015 -4.98244 -3.22341
upperneck 37.7956 -7.21168 5.09054
head 17.1717 -2.22771 1.57949
rclavicle -3.67752e-015 5.96354e-016
rhumerus -34.8672 -3.70784 -79.1532
rradius 29.6118
rwrist -4.19396
rhand -19.8031 17.9629
rfingers 7.12502
rthumb 6.52994 -11.9164
lclavicle -3.67752e-015 5.96354e-016
lhumerus -36.0774 -5.69772 90.7148
lradius 34.4147
lwrist 28.2647
lhand -19.9165 57.312
lfingers 7.12502
lthumb 6.42043 87.1947
rfemur -2.18056 7.93959 19.8309
rtibia -2.38542e-015
rfoot -0.687221 -20.6413
rtoes -9.44565
lfemur -9.89418 -28.4701 -10.6048
ltibia 13.6438
lfoot -11.9633 30.7303
ltoes -25.9714
7
root -4.34521 17.8504 1.00811 -51.2392 87.1702 -58.1803
lowerback 2.83893 0.584734 2.07864
upperback -2.41405 0.954693 1.38891
thorax -4.0709 0.446584 0.205941
lowerneck -18.1449 -4.7182 -3.13329
upperneck 37.3464 -6.86349 5.12987
head 16.9395 -2.08639 1.63373
rclavicle 5.56597e-015 2.38542e-015
rhumerus -35.0234 -3.64355 -79.1607
rradius 29.6331
rwrist -4.36649
rhand -19.8464 17.8796
rfingers 7.12502
rthumb 6.48812 -12.001
lclavicle 5.56597e-015 2.38542e-015
lhumerus -36.2711 -6.11343 90.8816
lradius 34.3892
lwrist 28.3092
lhand -19.9381 57.3492
lfingers 7.12502
lthumb 6.39958 87.2325
rfemur -2.14297 7.80325 19.8544
rtibia 3.18055e-015
rfoot -0.760086 -20.6382
rtoes -9.03342
lfemur -9.82107 -27.6702 -10.6223
ltibia 13.4121
lfoot -11.5451 29.8739
ltoes -26.4713
8
root -4.33468 17.853 1.01189 -53.6802 87.2005 -60.6097
lowerback 2.96074 0.630995 2.19633
upperback -2.48139 1.02632 1.34004
thorax -4.20645 0.47666 0.0833922
lowerneck -18.3606 -4.45161 -2.93615
upperneck 37.0825 -6.49729 5.03048
head 16.8133 -1.93294 1.6149
rclavicle 1.12686e-014 3.97569e-016
rhumerus -35.1601 -3.712 -79.1906
rradius 29.5773
rwrist -4.31937
rhand -19.7113 17.7662
rfingers 7.12502
rthumb 6.61855 -12.1103
lclavicle 1.12686e-014 3.97569e-016
lhumerus -36.2829 -6.16669 90.8756
lradius 34.0141
lwrist 28.083
lhand -20.0552 57.2741
lfingers 7.12502
lthumb 6.28649 87.1608
rfemur -2.06634 7.69248 19.9239
rtibia 1.03368e-014
rfoot -0.831674 -20.6395
rtoes -8.46768
lfemur -9.72807 -27.0645 -10.6133
ltibia 13.2432
lfoot -11.2858 29.2342
ltoes -26.8809
9
root -4.32373 17.853 1.01555 -55.3642 87.2369 -62.2778
lowerback 3.06693 0.655312 2.25178
upperback -2.54448 1.06509 1.29364
thorax -4.33002 0.49213 0.000293411
lowerneck -18.5707 -4.13927 -2.58908
upperneck 36.9258 -6.0499 4.75973
head 16.7244 -1.74534 1.51291
rclavicle -5.2181e-015 -1.92821e-014
rhumerus -35.2341 -3.80889 -79.2242
rradius 29.4633
rwrist -4.12566
rhand -19.5426 17.7119
rfingers 7.12502
rthumb 6.78134 -12.1595
lclavicle -5.2181e-015 -1.92821e-014
lhumerus -36.2491 -6.06508 90.7992
lradius 33.567
lwrist 27.8406
lhand -20.0837 57.2485
lfingers 7.12502
lthumb 6.25902 87.1361
rfemur -1.99241 7.60753 19.9617
rtibia -3.18055e-015
rfoot -0.820195 -20.6495
rtoes -8.41065
lfemur -9.64804 -26.4483 -10.6479
ltibia 13.1346
lfoot -11.018 28.5969
ltoes -27.2741
